<?xml version="1.0" encoding="UTF-8"?>
<svg id="Livello_2" data-name="Livello 2" xmlns="http://www.w3.org/2000/svg" viewBox="0 0 280.65 206.18">
  <defs>
    <style>
      .cls-1 {
        fill: #1d1d1b;
      }
    </style>
  </defs>
  <g id="Livello_1-2" data-name="Livello 1">
    <g>
      <g>
        <rect class="cls-1" width="24.49" height="206.18"/>
        <rect class="cls-1" x="256.16" width="24.49" height="206.18"/>
      </g>
      <path class="cls-1" d="M140.32,8.29c-52.36,0-94.8,42.44-94.8,94.8s42.44,94.8,94.8,94.8,94.8-42.44,94.8-94.8S192.68,8.29,140.32,8.29ZM175.13,183.15c-5.18,3.53-13.4,9.17-19.83,7.83,8.49-7.37,13.28-15.56,11.61-26.97-3.37-23.02-31.52-32.18-25.46-56.8-15.82,12.06-27.78,32.22-19.97,52.24-6.5-.3-9.64-6.3-13.06-10.74-7.92,13.77-3.8,30.63,6.92,41.47-28.5-9.15-42.81-39.38-36.5-67.99,8.91-40.35,60.34-60.05,51.88-107.21,30.7,25.33,53.3,63.91,38.42,104.5,12.11-2.67,20.56-12.17,25.34-23.04,17.33,28.62,8.22,67.92-19.34,86.69Z"/>
    </g>
  </g>
</svg>